<svg id="Layer_1" data-name="Layer 1" xmlns="http://www.w3.org/2000/svg" viewBox="0 0 19.1 20.56"><defs><style>.cls-1{fill:#747f87;}</style></defs><path class="cls-1" d="M18.67,13a1.38,1.38,0,0,1-2-1.89,4.7,4.7,0,0,0-.17-6.34,4.53,4.53,0,0,0-6.17,6.62,1.38,1.38,0,0,1-1.84,2.07s0,0-.05-.05a7.29,7.29,0,0,1,10-10.66A7.45,7.45,0,0,1,18.67,13Z" transform="translate(-1.47 -0.77)"/><path class="cls-1" d="M13.18,8.4a1.39,1.39,0,0,0-1.71,2.18,4.69,4.69,0,0,1,.83,6.29A4.52,4.52,0,0,1,5.17,11.3,1.38,1.38,0,0,0,3,9.6a7.29,7.29,0,0,0,11.49,9A7.46,7.46,0,0,0,13.18,8.4Z" transform="translate(-1.47 -0.77)"/></svg>