<svg id="Layer_1" data-name="Layer 1" xmlns="http://www.w3.org/2000/svg" viewBox="0 0 34.5 33.55"><defs><style>.cls-1{fill:#2e9fff;}.cls-2{fill:#fff;}</style></defs><path class="cls-1" d="M20.8,17.24H18.93v8.44H20.8c2.75,0,4.59-1.52,4.59-4.2S23.55,17.24,20.8,17.24Zm0,0H18.93v8.44H20.8c2.75,0,4.59-1.52,4.59-4.2S23.55,17.24,20.8,17.24Zm15.28-2.38A16.6,16.6,0,0,0,4.23,21.58a16.74,16.74,0,0,0,1.49,7l-.42,1L3,35.33l6.4-.87.74-.1a16.42,16.42,0,0,0,10.65,4h.34A16.67,16.67,0,0,0,37.47,21.58,16.89,16.89,0,0,0,36.08,14.86Zm-15.61,15H14.22V13h6.34c5.88,0,9.29,3.48,9.29,8.34s-3.46,8.54-9.38,8.54ZM20.8,17.2H18.93v8.48H20.8c2.75,0,4.59-1.52,4.59-4.2s-1.84-4.24-4.59-4.24Z" transform="translate(-2.97 -4.81)"/><path class="cls-2" d="M20.56,13H14.22V29.9h6.25c5.92,0,9.38-3.62,9.38-8.49S26.44,13,20.56,13Zm4.83,8.46c0,2.68-1.84,4.2-4.59,4.2H18.93V17.24H20.8c2.75,0,4.59,1.54,4.59,4.19Z" transform="translate(-2.97 -4.81)"/></svg>