<svg id="Layer_1" data-name="Layer 1" xmlns="http://www.w3.org/2000/svg" viewBox="0 0 20.71 15.26"><defs><style>.cls-1{fill:#747f87;fill-rule:evenodd;}</style></defs><path class="cls-1" d="M18.78,17.51l-1.22,1.17-2.37-2.27a12,12,0,0,1-2.17.5h-.6a11.36,11.36,0,0,1-1.65,0h-.65a11.52,11.52,0,0,1-3.06-.75h0l-.12,0h0l-.07,0h0a10.89,10.89,0,0,1-3.81-2.66v0H3l0,0,0,0H3v0l0,0h0l0,0,0,0h0l-.06-.06-.06-.07h0l0,0,0,0h0l0-.05h0l0-.05h0v0h0l0,0h0v0h0l0,0,0,0,0,0,0,0h0v0l0,0v0h0v0h0v0l0,0,0,0v0h0l0,0v0h0l0,0v0h0v0l0,0,0,0v0h0l0,0v0H2l0,0H2l0,0,0,0,0,0v0h0l0,0h0v0l0,0v0h0l0,0,0,0v0l0,0h0v0l0,0v0h0l0,0h0l0-.06v0h0l0,0v0h0l0-.08,0-.06c-.14-.27-.27-.55-.39-.83a10.81,10.81,0,0,1,1.2-2.12h0l0,0h0a.15.15,0,0,1,0-.06l.05-.07h0a10.87,10.87,0,0,1,2-2L2.89,4.59,4.11,3.42ZM6.74,8.3l0,.12A5.77,5.77,0,0,0,6.47,9v.05l0,0v0l0,0a5.16,5.16,0,0,0-.16,1.18v.47a5,5,0,0,0,.16.86v.1l0,0v0l0,.06v0l0,.05,0,.06v0l0,0a5.19,5.19,0,0,0,3.15,3h0l.06,0,.05,0H10l0,0h.11a4.49,4.49,0,0,0,1.09.16h.38a5.46,5.46,0,0,0,2-.46l-1.34-1.3a3.64,3.64,0,0,1-1.91-.06h0a3.47,3.47,0,0,1-2-1.64h0l0,0h0l0,0v0h0v0h0v0h0v0h0v0h0v0h0v0h0l0-.08,0-.08h0l0-.07h0a.14.14,0,0,0,0-.07h0v0h0v0h0v0h0a.06.06,0,0,0,0,0v0a3.24,3.24,0,0,1,.06-1.35Zm2-4.25a12.14,12.14,0,0,1,4-.21h.15l.1,0h.05l.14,0h0a12.51,12.51,0,0,1,1.5.33h.07l.08,0,.07,0,.12,0,.06,0A11.15,11.15,0,0,1,20.38,8l0,0,.06.08.06.08.06.07.06.09.05.07,0,.05a10.28,10.28,0,0,1,1.06,1.92,10,10,0,0,1-1.13,2h0v0h0l0,.06-.05.06h0a10.48,10.48,0,0,1-2.19,2.17l-2.26-2.17,0-.08.08-.17c.06-.13.06-.13.11-.26a5.27,5.27,0,0,0,.19-.68v0h0v0h0v-.08h0v0h0c0-.1,0-.19,0-.28h0v-.09h0v0h0v0h0v-.48h0v0h0V9.83h0V9.77h0V9.6l0-.12h0a5.56,5.56,0,0,0-.19-.7h0v0h0v-.1l0,0V8.51l0,0,0-.05h0l0,0v0l0,0v0h0a5.13,5.13,0,0,0-3-2.57h-.06l0,0h0l0,0h-.22a5.5,5.5,0,0,0-1.15-.17h-.46a5.11,5.11,0,0,0-1.23.21H9.87l0,0a4.32,4.32,0,0,0-.63.24l0,0L7.56,4.39c.39-.13.79-.24,1.2-.34h0ZM14.87,10a3.36,3.36,0,0,1-.11,1.34l-4.27-4.1a3.64,3.64,0,0,1,2.26.12h0l.06,0,.05,0a3.34,3.34,0,0,1,2,2.48V10Z" transform="translate(-1.08 -3.42)"/></svg>