<svg id="Layer_1" data-name="Layer 1" xmlns="http://www.w3.org/2000/svg" viewBox="0 0 26.19 20.55"><defs><style>.cls-1,.cls-2{fill:#747f87;}.cls-2{isolation:isolate;font-size:7.5px;font-family:HelveticaNeue-Bold, Helvetica Neue;font-weight:700;}.cls-3{fill:none;}.cls-4{fill:#2e9fff;}</style></defs><path class="cls-1" d="M17.84,8.4V19.48H2.64V8.4Zm0-1.85H2.64A1.88,1.88,0,0,0,.74,8.4V19.48a1.88,1.88,0,0,0,1.9,1.85h15.2a1.88,1.88,0,0,0,1.9-1.85V8.4A1.88,1.88,0,0,0,17.84,6.55Z" transform="translate(-0.74 -0.78)"/><text class="cls-2" transform="translate(3.5 16.27)">GIF</text><path class="cls-3" d="M17.84.78h9.09V9.87H17.84Z" transform="translate(-0.74 -0.78)"/><path class="cls-4" d="M22.38.78a4.55,4.55,0,1,0,4.55,4.54A4.54,4.54,0,0,0,22.38.78Zm1.93,7.27L22.38,6.89,20.46,8.05,21,5.86l-1.7-1.47,2.24-.19.87-2.06.88,2.06,2.23.19L23.8,5.86Z" transform="translate(-0.74 -0.78)"/></svg>