<svg id="Layer_1" data-name="Layer 1" xmlns="http://www.w3.org/2000/svg" viewBox="0 0 33.5 33.5"><defs><style>.cls-1{fill:#e31c2e;}.cls-2{fill:#fff;}</style></defs><circle class="cls-1" cx="16.75" cy="16.75" r="16.75"/><path class="cls-2" d="M29,21.79A9.54,9.54,0,0,1,28,26.33a7.76,7.76,0,0,1-3,3.12,8.93,8.93,0,0,1-4.52,1.13,8.63,8.63,0,0,1-3.5-.71,8.74,8.74,0,0,1-4.78-4.79,9,9,0,0,1,0-7A8.79,8.79,0,0,1,16.9,13.3a9.13,9.13,0,0,1,3.5-.72,8.53,8.53,0,0,1,6,2.35L24,17.28a5,5,0,0,0-3.58-1.39,5.47,5.47,0,0,0-2.79.76,5.76,5.76,0,0,0-2,7.77,5.45,5.45,0,0,0,2,2.07,5.28,5.28,0,0,0,2.79.76A6,6,0,0,0,22.25,27a4.52,4.52,0,0,0,1.4-.71,5,5,0,0,0,1-1,4.58,4.58,0,0,0,.6-1,5.31,5.31,0,0,0,.26-.91h-5.1V20.29H28.9A9.5,9.5,0,0,1,29,21.79Z" transform="translate(-3.47 -4.83)"/></svg>