<svg id="Layer_1" data-name="Layer 1" xmlns="http://www.w3.org/2000/svg" viewBox="0 0 15.64 19.9"><defs><style>.cls-1{fill:#747f87;}</style></defs><path class="cls-1" d="M1.1,21V1.1H7.88a10.64,10.64,0,0,1,5.75,1.33A4.59,4.59,0,0,1,15.7,6.52,4.32,4.32,0,0,1,15,9a4.65,4.65,0,0,1-2.18,1.66,4.12,4.12,0,0,1,2.87,1.66,4.72,4.72,0,0,1,1,3,5.21,5.21,0,0,1-2,4.32A9.64,9.64,0,0,1,9.15,21ZM5.24,9.39H8a4,4,0,0,0,2.53-.66,1.84,1.84,0,0,0,.92-1.88,2.41,2.41,0,0,0-.92-2A4.45,4.45,0,0,0,7.88,4.2H5.24Zm0,2.77v5.75H9.15a4,4,0,0,0,2.53-.67,2.39,2.39,0,0,0,.92-2A2.79,2.79,0,0,0,11.79,13a3.45,3.45,0,0,0-2.53-.77h-4Z" transform="translate(-1.1 -1.1)"/></svg>