<svg id="Layer_1" data-name="Layer 1" xmlns="http://www.w3.org/2000/svg" viewBox="0 0 21.32 19.9"><defs><style>.cls-1{fill:#747f87;fill-rule:evenodd;}</style></defs><path class="cls-1" d="M3.62,18.19l2.06-2.32A7.92,7.92,0,0,0,10.81,18c2.23,0,3.44-1,3.44-2.47S13,13.49,11.2,12.76L8.48,11.61c-1.93-.79-4-2.29-4-5.11,0-3,2.77-5.4,6.64-5.4A8.82,8.82,0,0,1,17.2,3.54L15.42,5.71a6.49,6.49,0,0,0-4.28-1.64C9.27,4.07,8,4.92,8,6.33S9.54,8.38,11.17,9l2.69,1.08c2.32,1,4,2.41,4,5.2,0,3.11-2.66,5.69-7.1,5.69A10.37,10.37,0,0,1,3.62,18.19Z" transform="translate(-0.78 -1.1)"/><path class="cls-1" d="M.78,11.05H22.1V13.9H.78Z" transform="translate(-0.78 -1.1)"/></svg>