<svg id="Layer_1" data-name="Layer 1" xmlns="http://www.w3.org/2000/svg" viewBox="0 0 25.08 18.11"><defs><style>.cls-1{fill:#747f87;}</style></defs><path class="cls-1" d="M1.11,9.24C2.34,4.41,4.8,2,6,2h3.7S4.8,5.62,4.8,10.45l2-.33a4.61,4.61,0,0,1,5.3,3.81,4.71,4.71,0,0,1,.06.74,5.44,5.44,0,0,1-5.43,5.44H6.65a6,6,0,0,1-6-5.91A19.71,19.71,0,0,1,1.11,9.24Zm13.55,0C15.89,4.41,18.35,2,19.58,2h3.7s-4.93,3.62-4.93,8.45l2-.33a4.61,4.61,0,0,1,5.36,4.55,5.44,5.44,0,0,1-5.43,5.44H20.2a6,6,0,0,1-6-5.91A19.25,19.25,0,0,1,14.66,9.24Z" transform="translate(-0.66 -2)"/></svg>