<svg id="Layer_1" data-name="Layer 1" xmlns="http://www.w3.org/2000/svg" viewBox="0 0 33.5 33.5"><defs><style>.cls-1{fill:#00aaef;}.cls-2{fill:#fff;}</style></defs><circle class="cls-1" cx="16.75" cy="16.75" r="16.75"/><path class="cls-2" d="M29.46,15.85a8,8,0,0,1-1.9,2v.49a10.84,10.84,0,0,1-.45,3,11.23,11.23,0,0,1-1.35,2.92,11.6,11.6,0,0,1-2.17,2.47,9.42,9.42,0,0,1-3,1.71,11.14,11.14,0,0,1-3.79.64A10.44,10.44,0,0,1,11,27.38c.3,0,.61.05.92.05a7.41,7.41,0,0,0,4.7-1.62,3.81,3.81,0,0,1-3.54-2.63,4.17,4.17,0,0,0,.71.06,4.22,4.22,0,0,0,1-.13,3.72,3.72,0,0,1-2.18-1.31,3.67,3.67,0,0,1-.86-2.41v-.05a3.67,3.67,0,0,0,1.71.48,3.85,3.85,0,0,1-1.23-5.06,10.64,10.64,0,0,0,3.5,2.82,10.53,10.53,0,0,0,4.36,1.17,4.28,4.28,0,0,1-.09-.87,3.77,3.77,0,0,1,3.75-3.79h0a3.68,3.68,0,0,1,2.77,1.19,7.36,7.36,0,0,0,2.4-.91,3.68,3.68,0,0,1-1.66,2.09A7.86,7.86,0,0,0,29.46,15.85Z" transform="translate(-3.47 -4.83)"/></svg>